<svg xmlns="http://www.w3.org/2000/svg" xml:space="preserve" viewBox="0 0 500 500"><path d="m383.913 121.483-97.979-20.692a4.665 4.665 0 0 1-3.6-5.521l12.788-60.525a4.66 4.66 0 0 1 5.516-3.599l97.985 20.697a4.66 4.66 0 0 1 3.589 5.517l-12.782 60.53a4.665 4.665 0 0 1-5.517 3.593" style="fill:#ebebeb"/><path d="m296.154 76.729-1.259 5.961-.607-.13 1.147-5.4-1.406-.298.118-.562zM301.132 83.428l-.118.562-4.168-.882.092-.433 2.98-1.901c.811-.517 1.019-.889 1.113-1.301.145-.686-.252-1.211-1.157-1.407a2.1 2.1 0 0 0-1.767.32l-.352-.463a2.74 2.74 0 0 1 2.288-.408c1.204.256 1.839 1.029 1.631 2.052-.118.562-.404 1.041-1.366 1.655l-2.445 1.558zM307.605 83.741l-1.192-.252-.327 1.563-.613-.13.333-1.558-3.374-.708.133-.465 3.981-3.273.681.146-3.851 3.195 2.581.546.29-1.378.596.126-.295 1.378 1.192.252zM316.717 85.669l-1.187-.252-.333 1.564-.618-.129.333-1.564-3.374-.709.097-.439 3.981-3.279.681.146-3.851 3.195 2.581.546.29-1.372.596.12-.289 1.378 1.187.252zM321.951 86.577c-.214 1.012-1.085 1.651-2.537 1.341a3.16 3.16 0 0 1-1.972-1.215l.401-.424c.397.563.999.947 1.677 1.072 1.012.214 1.639-.154 1.808-.886.168-.732-.22-1.341-1.727-1.657l-1.265-.267.933-2.921 3.256.686-.118.562-2.716-.572-.604 1.848.765.16c1.793.373 2.319 1.222 2.099 2.273M327.836 87.794c-.236 1.125-1.263 1.64-2.421 1.396-1.575-.332-2.202-1.612-1.805-3.491.422-2.019 1.751-2.838 3.363-2.521a2.8 2.8 0 0 1 1.343.624l-.35.441a2.1 2.1 0 0 0-1.097-.525c-1.282-.271-2.28.38-2.624 1.994a8 8 0 0 0-.076.487 1.94 1.94 0 0 1 2.035-.632c1.183.268 1.86 1.136 1.632 2.227m-.611-.114c.169-.782-.303-1.405-1.225-1.599a1.405 1.405 0 0 0-1.799.979c-.137.652.273 1.385 1.303 1.603a1.322 1.322 0 0 0 1.721-.983M335.952 89.578c-.21.995-1.095 1.608-2.529 1.301a3.17 3.17 0 0 1-1.977-1.214l.401-.424c.401.568 1.01.955 1.694 1.076.984.211 1.639-.154 1.781-.873s-.248-1.289-1.356-1.526l-.422-.087.095-.45 2.082-1.717-3.042-.64.113-.562 3.824.81-.092.433-2.127 1.765c1.264.35 1.758 1.158 1.555 2.108M341.957 90.767c-.236 1.125-1.263 1.64-2.416 1.396-1.58-.331-2.208-1.612-1.81-3.485.427-2.025 1.751-2.843 3.363-2.521.496.081.961.297 1.343.624l-.35.441a2.1 2.1 0 0 0-1.097-.526c-1.282-.271-2.28.38-2.619 1.993q-.054.24-.076.487a1.94 1.94 0 0 1 2.03-.632c1.156.267 1.833 1.135 1.632 2.223m-.606-.114c.164-.782-.308-1.404-1.225-1.594a1.404 1.404 0 0 0-1.778.886q-.014.044-.026.088c-.137.652.274 1.391 1.303 1.609a1.334 1.334 0 0 0 1.701-.964zM348.288 87.753l-.092.433-3.655 4.985-.658-.137 3.587-4.885-3.06-.65-.236 1.125-.602-.125.349-1.687zM356.775 89.547l-.092.433-3.649 4.99-.664-.142 3.587-4.884-3.059-.644-.231 1.124-.608-.13.352-1.654zM361.721 95.074c-.221 1.052-1.252 1.518-2.669 1.221s-2.158-1.142-1.931-2.194a1.51 1.51 0 0 1 1.449-1.239 1.36 1.36 0 0 1-.654-1.504c.201-.972 1.153-1.398 2.413-1.136s1.967 1.05 1.768 2.039a1.39 1.39 0 0 1-1.23 1.108 1.53 1.53 0 0 1 .854 1.705m-.625-.14c.152-.731-.378-1.326-1.43-1.547s-1.771.106-1.928.837.367 1.327 1.424 1.547 1.776-.101 1.928-.837zm-1.332-2.03c.928.194 1.567-.103 1.705-.75s-.355-1.201-1.233-1.395-1.556.102-1.693.76.299 1.191 1.221 1.385M367.787 94.923c-.427 2.025-1.756 2.844-3.368 2.521a2.8 2.8 0 0 1-1.343-.624l.35-.441c.309.275.689.457 1.097.525 1.282.271 2.28-.379 2.624-1.994.026-.135.054-.308.076-.487a1.95 1.95 0 0 1-2.035.632c-1.181-.247-1.858-1.121-1.624-2.207s1.257-1.639 2.416-1.396c1.577.318 2.198 1.593 1.807 3.471m-.596-1.355c.143-.653-.274-1.391-1.298-1.609a1.334 1.334 0 0 0-1.726.989c-.164.776.302 1.399 1.225 1.594a1.4 1.4 0 0 0 1.772-.882q.014-.045.027-.092M374.428 93.274l-1.255 5.95-.613-.13 1.146-5.405-1.4-.293.113-.562zM379.401 99.968l-.113.562-4.169-.898.092-.433 2.98-1.9c.811-.517 1.019-.889 1.112-1.301.145-.686-.251-1.211-1.162-1.401a2.05 2.05 0 0 0-1.761.32l-.353-.469a2.74 2.74 0 0 1 2.288-.402c1.203.251 1.839 1.029 1.628 2.019-.124.563-.404 1.041-1.371 1.656l-2.439 1.558zM384.982 99.934c-.21.99-1.095 1.602-2.529 1.301a3.18 3.18 0 0 1-1.978-1.22l.402-.418a2.65 2.65 0 0 0 1.694 1.076c.984.211 1.639-.154 1.781-.873s-.253-1.288-1.356-1.526l-.422-.087.095-.455 2.083-1.712-3.043-.646.113-.562 3.824.804-.092.433-2.142 1.789c1.278.343 1.761 1.141 1.57 2.096" style="fill:#fff"/><path d="M360.262 78.382h2.64v48.669h-2.64z" style="fill:#fff" transform="rotate(-78.077 361.57 102.721)"/><path d="M370.776 97.845h2.64v24.96h-2.64z" style="fill:#fff" transform="rotate(-78.077 372.086 110.329)"/><g style="opacity:.5"><path d="m298.607 56.819 14.586 3.143a2.71 2.71 0 0 1 2.08 3.222l-2.059 9.557a2.71 2.71 0 0 1-3.222 2.08l-14.586-3.143a2.713 2.713 0 0 1-2.08-3.222l2.059-9.557a2.71 2.71 0 0 1 3.222-2.08" style="fill:#fafafa"/></g><path d="m294.497 66.72.202-.956 10.286 2.171a2.2 2.2 0 0 0 .913-4.303l-10.292-2.175.202-.956 10.291 2.17a3.183 3.183 0 0 1-1.317 6.226z" style="fill:#e0e0e0"/><path d="M311.095 63.471h.977v7.217h-.977z" style="fill:#e0e0e0" transform="rotate(-78.024 311.584 67.078)"/><path d="M324.697 25.505h4.506v52.522h-4.506z" style="fill:#fff" transform="rotate(-78.077 326.945 51.77)"/><path d="m381.897 57.972 6.959 1.47a1.73 1.73 0 0 1 1.334 2.049l-1.47 6.959a1.73 1.73 0 0 1-2.049 1.334l-6.959-1.47a1.73 1.73 0 0 1-1.334-2.049l1.47-6.959a1.73 1.73 0 0 1 2.049-1.334" style="fill:#fff"/><path d="M399.068 375.795c-7.599 13.26-24.532 17.836-37.823 10.221-13.291-7.616-17.906-24.539-10.308-37.799s24.531-17.837 37.823-10.221c13.29 7.615 17.905 24.539 10.308 37.799" style="fill:#f5f5f5"/><path d="M393.341 372.514c-5.79 10.105-18.694 13.592-28.824 7.788-10.128-5.803-13.645-18.7-7.856-28.805 5.791-10.105 18.695-13.593 28.824-7.789s13.646 18.701 7.856 28.806" style="fill:#ebebeb"/><path d="M393.666 371.937c-.114-.06.27-.909.779-2.483.498-1.569 1.1-3.907 1.105-6.833a21.7 21.7 0 0 0-.518-4.724 21.2 21.2 0 0 0-1.875-5.096 19.6 19.6 0 0 0-1.54-2.5 20 20 0 0 0-1.963-2.346 20.4 20.4 0 0 0-2.375-2.095 22.6 22.6 0 0 0-2.749-1.755 23 23 0 0 0-2.992-1.301 20.6 20.6 0 0 0-3.065-.799 20 20 0 0 0-3.043-.317c-1-.038-1.983.015-2.934.12a21.1 21.1 0 0 0-5.273 1.294 21.6 21.6 0 0 0-4.207 2.21c-2.422 1.64-4.023 3.445-5.046 4.735-1.02 1.302-1.51 2.095-1.623 2.033-.085-.043.217-.939 1.107-2.395.892-1.44 2.425-3.449 4.896-5.304a21.4 21.4 0 0 1 4.364-2.52 21.6 21.6 0 0 1 5.599-1.532 20.4 20.4 0 0 1 3.149-.185c1.077.019 2.178.103 3.283.301a21.6 21.6 0 0 1 3.314.838c1.096.377 2.178.843 3.232 1.396a23 23 0 0 1 2.962 1.9 21.6 21.6 0 0 1 2.546 2.28 20.6 20.6 0 0 1 2.083 2.554 21.619 21.619 0 0 1 3.466 8.214 21.5 21.5 0 0 1 .349 5.028c-.158 3.086-.966 5.48-1.661 7.025-.712 1.551-1.287 2.302-1.37 2.257" style="fill:#e0e0e0"/><path d="m370.809 374.133-1.784 3.221-2.875-1.594 1.736-3.134c-2.751-1.75-4.989-4.154-5.885-6.266l3.524-2.633c.848 1.861 2.488 3.784 4.448 5.132l2.66-4.803c-2.762-2.543-5.738-5.583-3.46-9.695 1.689-3.048 5.352-4.438 10.182-2.439l1.769-3.192 2.876 1.593-1.737 3.135c2.061 1.367 3.841 3.104 4.865 4.987l-3.397 2.741c-1.005-1.646-2.229-2.964-3.571-3.934l-2.708 4.889c2.778 2.515 5.696 5.523 3.451 9.577-1.658 2.993-5.277 4.37-10.094 2.415m4.166-14.302 2.261-4.083c-1.715-.499-2.781.001-3.307.95-.557 1.005.003 2.03 1.046 3.133m1.106 9.67c.558-1.007.026-2.015-.971-3.132l-2.199 3.969c1.614.48 2.661.083 3.17-.837" style="fill:#e0e0e0"/><path d="M479.126 255.704c-7.599 13.26-24.532 17.836-37.823 10.222-13.291-7.616-17.906-24.539-10.308-37.8s24.531-17.837 37.823-10.221c13.29 7.616 17.906 24.539 10.308 37.799" style="fill:#f5f5f5"/><path d="M473.399 252.424c-5.79 10.105-18.694 13.592-28.824 7.788-10.128-5.803-13.645-18.7-7.856-28.805 5.791-10.105 18.696-13.593 28.824-7.789s13.646 18.7 7.856 28.806" style="fill:#ebebeb"/><path d="M473.725 251.846c-.114-.06.27-.909.779-2.483.498-1.57 1.1-3.907 1.105-6.833a21.7 21.7 0 0 0-.518-4.724 21.2 21.2 0 0 0-1.875-5.096 20 20 0 0 0-1.54-2.5 20 20 0 0 0-1.963-2.346 20.4 20.4 0 0 0-2.375-2.095 22.6 22.6 0 0 0-2.749-1.755 23 23 0 0 0-2.992-1.301 20.6 20.6 0 0 0-3.065-.799 20 20 0 0 0-3.043-.317c-1-.038-1.983.015-2.934.12a21.1 21.1 0 0 0-5.273 1.294 21.6 21.6 0 0 0-4.207 2.21c-2.422 1.64-4.023 3.445-5.046 4.735-1.02 1.302-1.51 2.095-1.623 2.033-.085-.043.217-.939 1.106-2.395.893-1.44 2.425-3.449 4.896-5.304a21.4 21.4 0 0 1 4.364-2.52 21.6 21.6 0 0 1 5.599-1.532 20.4 20.4 0 0 1 3.149-.185c1.077.019 2.178.103 3.283.3a21.6 21.6 0 0 1 3.314.838c1.096.377 2.178.843 3.232 1.396a23 23 0 0 1 2.962 1.9 21.6 21.6 0 0 1 2.546 2.28 20.6 20.6 0 0 1 2.083 2.554 21.619 21.619 0 0 1 3.466 8.214 21.5 21.5 0 0 1 .349 5.028c-.158 3.086-.966 5.48-1.661 7.025-.711 1.553-1.286 2.304-1.369 2.258" style="fill:#e0e0e0"/><path d="m450.867 254.043-1.784 3.221-2.875-1.594 1.736-3.134c-2.751-1.75-4.989-4.154-5.885-6.266l3.524-2.633c.848 1.861 2.488 3.784 4.448 5.132l2.66-4.803c-2.762-2.544-5.738-5.583-3.46-9.695 1.689-3.048 5.352-4.438 10.182-2.439l1.768-3.192 2.876 1.593-1.737 3.135c2.061 1.367 3.841 3.104 4.865 4.987l-3.397 2.741c-1.005-1.646-2.229-2.964-3.571-3.934l-2.708 4.89c2.778 2.515 5.696 5.523 3.451 9.577-1.657 2.991-5.276 4.368-10.093 2.414m4.166-14.303 2.261-4.083c-1.715-.499-2.781.001-3.307.95-.557 1.005.003 2.03 1.046 3.133m1.107 9.671c.558-1.007.026-2.015-.971-3.132l-2.199 3.969c1.613.48 2.66.083 3.17-.837" style="fill:#e0e0e0"/><path d="M208.456 80.281c-8.915 15.557-28.781 20.925-44.374 11.992-15.593-8.935-21.008-28.789-12.093-44.346 8.913-15.557 28.78-20.926 44.373-11.991s21.008 28.789 12.094 44.345" style="fill:#f5f5f5"/><path d="M201.738 76.432c-6.792 11.855-21.932 15.946-33.816 9.137-11.882-6.808-16.009-21.939-9.216-33.794s21.933-15.947 33.816-9.138c11.882 6.81 16.009 21.94 9.216 33.795" style="fill:#ebebeb"/><path d="M202.119 75.755c-.133-.07.316-1.067.914-2.913.584-1.841 1.29-4.583 1.297-8.017a25.4 25.4 0 0 0-.608-5.542c-.454-1.951-1.15-3.99-2.199-5.978a23 23 0 0 0-1.807-2.933 23 23 0 0 0-2.303-2.752 24 24 0 0 0-2.786-2.458 26.4 26.4 0 0 0-3.226-2.059 26.6 26.6 0 0 0-3.511-1.526 24 24 0 0 0-3.596-.938 23 23 0 0 0-3.57-.372 23 23 0 0 0-3.442.141c-2.235.241-4.316.804-6.186 1.518a25.4 25.4 0 0 0-4.936 2.593c-2.842 1.924-4.72 4.042-5.921 5.555-1.196 1.528-1.771 2.458-1.904 2.385-.099-.05.255-1.102 1.298-2.81 1.047-1.69 2.845-4.046 5.744-6.223a25 25 0 0 1 5.12-2.957c1.966-.827 4.175-1.488 6.569-1.797a24 24 0 0 1 3.695-.218c1.263.022 2.555.121 3.851.353 1.295.228 2.603.538 3.888.983 1.285.443 2.555.99 3.791 1.637a27.4 27.4 0 0 1 3.475 2.229 25 25 0 0 1 2.987 2.675c.916.944 1.72 1.961 2.444 2.997a24 24 0 0 1 1.885 3.186 25.3 25.3 0 0 1 2.181 6.452c.396 2.098.498 4.094.409 5.898-.185 3.621-1.134 6.429-1.949 8.242-.832 1.821-1.506 2.702-1.604 2.649" style="fill:#e0e0e0"/><path d="m175.303 78.332-2.093 3.779-3.373-1.87 2.037-3.677c-3.227-2.053-5.854-4.873-6.905-7.352l4.135-3.089c.995 2.184 2.92 4.439 5.219 6.021l3.12-5.635c-3.241-2.984-6.732-6.55-4.059-11.374 1.981-3.576 6.279-5.207 11.945-2.861l2.075-3.745 3.374 1.869-2.038 3.678c2.418 1.604 4.507 3.642 5.708 5.85l-3.985 3.216c-1.179-1.931-2.615-3.477-4.19-4.615l-3.177 5.736c3.259 2.95 6.683 6.48 4.048 11.236-1.944 3.51-6.19 5.126-11.841 2.833m4.887-16.78 2.652-4.791c-2.012-.585-3.262.001-3.879 1.114-.653 1.181.003 2.383 1.227 3.677m1.299 11.345c.654-1.182.031-2.364-1.139-3.675l-2.579 4.656c1.892.565 3.12.099 3.718-.981" style="fill:#e0e0e0"/><path d="M85.818 186.315c-8.915 15.557-28.781 20.926-44.374 11.992-15.593-8.935-21.008-28.789-12.093-44.346 8.913-15.557 28.78-20.926 44.373-11.991 15.592 8.933 21.007 28.788 12.094 44.345" style="fill:#f5f5f5"/><path d="M79.099 182.466c-6.792 11.855-21.932 15.946-33.816 9.137-11.882-6.808-16.009-21.939-9.216-33.794S58 141.862 69.883 148.671s16.009 21.939 9.216 33.795" style="fill:#ebebeb"/><path d="M79.481 181.788c-.133-.07.316-1.067.914-2.913.584-1.841 1.29-4.583 1.297-8.017a25.4 25.4 0 0 0-.608-5.542c-.454-1.951-1.15-3.99-2.199-5.978a23 23 0 0 0-1.807-2.933 23 23 0 0 0-2.303-2.752 24 24 0 0 0-2.786-2.458 26.4 26.4 0 0 0-3.226-2.059 26.6 26.6 0 0 0-3.51-1.526 24 24 0 0 0-3.596-.938 23 23 0 0 0-3.57-.372 23 23 0 0 0-3.442.141c-2.235.241-4.316.804-6.186 1.518a25.4 25.4 0 0 0-4.936 2.593c-2.842 1.924-4.72 4.042-5.921 5.555-1.196 1.528-1.772 2.458-1.904 2.385-.099-.05.255-1.102 1.298-2.81 1.047-1.69 2.845-4.046 5.743-6.223a25 25 0 0 1 5.119-2.957c1.966-.827 4.175-1.488 6.569-1.797a24 24 0 0 1 3.695-.217c1.263.022 2.555.121 3.851.353 1.295.228 2.603.538 3.888.983 1.285.443 2.556.99 3.791 1.637a27.4 27.4 0 0 1 3.475 2.229 25 25 0 0 1 2.987 2.675 24 24 0 0 1 2.444 2.997 24 24 0 0 1 1.885 3.186A25.3 25.3 0 0 1 82.624 165c.396 2.098.498 4.094.409 5.899-.185 3.621-1.134 6.428-1.949 8.242-.831 1.82-1.506 2.701-1.603 2.647" style="fill:#e0e0e0"/><path d="m52.664 184.365-2.093 3.779-3.373-1.87 2.037-3.677c-3.227-2.053-5.854-4.873-6.905-7.352l4.135-3.089c.995 2.183 2.92 4.439 5.219 6.021l3.12-5.635c-3.241-2.984-6.732-6.55-4.059-11.374 1.981-3.576 6.279-5.207 11.945-2.861l2.075-3.745 3.374 1.869-2.037 3.678c2.418 1.604 4.507 3.642 5.708 5.85l-3.985 3.216c-1.179-1.931-2.615-3.477-4.19-4.615l-3.177 5.736c3.259 2.95 6.683 6.48 4.048 11.236-1.944 3.511-6.19 5.127-11.842 2.833m4.888-16.78 2.652-4.791c-2.012-.585-3.262.001-3.879 1.114-.653 1.181.003 2.384 1.227 3.677m1.298 11.346c.654-1.182.031-2.364-1.139-3.675l-2.579 4.656c1.892.564 3.12.098 3.718-.981" style="fill:#e0e0e0"/><path d="M77.413 383.527c-6.386 11.144-20.617 14.99-31.787 8.59s-15.049-20.622-8.663-31.767 20.616-14.99 31.786-8.59 15.049 20.623 8.664 31.767" style="fill:#f5f5f5"/><path d="M72.6 380.77c-4.866 8.492-15.711 11.423-24.223 6.545-8.512-4.877-11.468-15.715-6.602-24.207 4.867-8.492 15.712-11.423 24.223-6.546 8.512 4.877 11.468 15.715 6.602 24.208" style="fill:#ebebeb"/><path d="M72.874 380.285c-.095-.05.227-.764.655-2.087.418-1.319.924-3.283.929-5.742a18.2 18.2 0 0 0-.436-3.97 17.8 17.8 0 0 0-1.575-4.282 16.6 16.6 0 0 0-1.294-2.101 16.4 16.4 0 0 0-1.65-1.972 17 17 0 0 0-1.996-1.761 19 19 0 0 0-2.311-1.475 19 19 0 0 0-2.515-1.093c-.852-.3-1.718-.511-2.576-.672a16.6 16.6 0 0 0-2.557-.266 16.6 16.6 0 0 0-2.465.101 17.8 17.8 0 0 0-4.432 1.087 18.3 18.3 0 0 0-3.536 1.857c-2.036 1.378-3.381 2.895-4.241 3.979-.857 1.094-1.269 1.761-1.364 1.709-.071-.036.182-.789.93-2.013.75-1.21 2.038-2.898 4.114-4.458a18 18 0 0 1 3.667-2.118 18.1 18.1 0 0 1 4.705-1.287 17 17 0 0 1 2.647-.156 17.4 17.4 0 0 1 2.759.253c.928.164 1.864.385 2.785.704.921.317 1.831.709 2.716 1.173.88.475 1.712 1.01 2.489 1.597a18 18 0 0 1 2.14 1.916 17 17 0 0 1 1.75 2.147 18.167 18.167 0 0 1 2.913 6.904 18 18 0 0 1 .293 4.225c-.133 2.594-.812 4.605-1.396 5.904-.595 1.304-1.079 1.935-1.148 1.897" style="fill:#e0e0e0"/><path d="m53.664 382.131-1.499 2.707-2.416-1.339 1.459-2.634c-2.312-1.471-4.193-3.491-4.946-5.266l2.962-2.213c.713 1.564 2.091 3.18 3.738 4.313l2.235-4.036c-2.321-2.138-4.822-4.692-2.908-8.148 1.419-2.562 4.498-3.73 8.557-2.05l1.486-2.683 2.417 1.339-1.46 2.635c1.732 1.149 3.228 2.609 4.089 4.191l-2.855 2.304c-.845-1.384-1.874-2.491-3.001-3.306l-2.276 4.109c2.334 2.113 4.787 4.642 2.9 8.048-1.392 2.514-4.434 3.671-8.482 2.029m3.501-12.02 1.9-3.432c-1.441-.419-2.337.001-2.779.798-.468.845.002 1.707.879 2.634m.93 8.127c.469-.846.022-1.693-.816-2.632l-1.848 3.335c1.356.404 2.236.07 2.664-.703" style="fill:#e0e0e0"/><path d="M23.933 468.963c0-.144 100.774-.26 225.056-.26 124.325 0 225.078.117 225.078.26s-100.752.26-225.078.26c-124.282 0-225.056-.116-225.056-.26" style="fill:#263238"/><circle cx="102.212" cy="261.389" r="38.547" style="fill:#ff725e" transform="rotate(-71.525 102.217 261.392)"/><g style="opacity:.1"><path d="M81.561 228.82c-17.962 11.405-23.277 35.211-11.873 53.173l.007.012s23.523-13.481 23.182-26.183c-.34-12.703-11.316-27.002-11.316-27.002" style="fill:#fff"/></g><circle cx="100.166" cy="258.203" r="29.227" style="fill:#ff725e" transform="rotate(-1.81 100.187 258.254)"/><circle cx="100.166" cy="258.203" r="29.227" style="opacity:.2" transform="rotate(-1.81 100.187 258.254)"/><path d="M127.463 246.071c8.567 13.474 4.588 31.341-8.886 39.908s-31.341 4.588-39.908-8.885-4.588-31.341 8.885-39.908l.022-.014c13.475-8.55 31.326-4.566 39.887 8.899" style="fill:#ff725e"/><g style="opacity:.2"><path d="M127.463 246.071c8.567 13.474 4.588 31.341-8.886 39.908s-31.341 4.588-39.908-8.885-4.588-31.341 8.885-39.908l.022-.014c13.475-8.55 31.326-4.566 39.887 8.899" style="fill:#fff"/></g><path d="m102.678 258.824-3.958-6.239a15.5 15.5 0 0 1 3.876-1.24 12.7 12.7 0 0 1 2.176.003l-.05-.249-.462-2.861-.131-.65-1.851-.462-.392.575c-1.861.16-3.671.692-5.322 1.564l-2.189-3.438-1.615-.183.545.86-1.458.935 2.213 3.501c-4.534 3.525-5.066 7.78-3.078 10.887 2.734 4.298 7.122 3.079 11.089 1.73l3.925 6.189a14.03 14.03 0 0 1-7.693 1.545l.59 4.007c2.499.377 6.066-.496 9.212-2.233l1.647 2.589-1.194.792 1.723.049 2.535-1.636-2.196-3.47c4.547-3.573 5.131-7.793 3.137-10.932-2.68-4.266-7.109-2.971-11.079-1.633m-2.94.963c-2.132.608-3.89.781-4.842-.707-.953-1.488-.618-3.077 1.351-4.78zm8.795 8.266-3.478-5.478c2.191-.654 4.009-.805 4.966.705.843 1.34.556 2.999-1.488 4.773" style="fill:#ff725e"/><path d="m102.678 258.824-3.958-6.239a15.5 15.5 0 0 1 3.876-1.24 12.7 12.7 0 0 1 2.176.003l-.05-.249-.462-2.861-.131-.65-1.851-.462-.392.575c-1.861.16-3.671.692-5.322 1.564l-2.189-3.438-1.615-.183.545.86-1.458.935 2.213 3.501c-4.534 3.525-5.066 7.78-3.078 10.887 2.734 4.298 7.122 3.079 11.089 1.73l3.925 6.189a14.03 14.03 0 0 1-7.693 1.545l.59 4.007c2.499.377 6.066-.496 9.212-2.233l1.647 2.589-1.194.792 1.723.049 2.535-1.636-2.196-3.47c4.547-3.573 5.131-7.793 3.137-10.932-2.68-4.266-7.109-2.971-11.079-1.633m-2.94.963c-2.132.608-3.89.781-4.842-.707-.953-1.488-.618-3.077 1.351-4.78zm8.795 8.266-3.478-5.478c2.191-.654 4.009-.805 4.966.705.843 1.34.556 2.999-1.488 4.773" style="opacity:.3"/><path d="m109.081 271.234 2.207 3.468-2.535 1.636-2.179-3.44c-3.152 1.76-6.723 2.612-9.22 2.246l-.59-4.007a14.1 14.1 0 0 0 7.693-1.545l-3.925-6.189c-3.969 1.338-8.357 2.557-11.08-1.743-2.009-3.158-1.477-7.357 3.067-10.884l-2.213-3.501 2.535-1.636 2.179 3.44a15.7 15.7 0 0 1 7.469-2.097l.712 3.938a15.3 15.3 0 0 0-6.078 1.502l3.973 6.258c3.967-1.349 8.396-2.644 11.122 1.667 2.009 3.113 1.431 7.31-3.137 10.887m-10.936-11.635-3.498-5.52c-1.984 1.74-2.206 3.441-1.297 4.769s2.665 1.371 4.795.751m10.295 3.501c-.97-1.518-2.777-1.37-4.968-.716l3.478 5.479c2.034-1.772 2.332-3.432 1.49-4.763" style="fill:#ff725e"/><path d="M93.197 262.858a2.5 2.5 0 0 1-1.179-.259 4.62 4.62 0 0 1-2.173-1.897 4.53 4.53 0 0 1-.57-2.839c.004-.421.119-.833.335-1.194 0 0-.102.449-.14 1.155-.056.932.161 1.86.626 2.67a4.9 4.9 0 0 0 2.017 1.849c.642.39 1.086.47 1.084.515M92.708 249.87c-.076.015-.414-.379-.77-.973s-.586-1.01-.523-1.09.403.381.77.973.595 1.053.523 1.09" style="fill:#fff"/><circle cx="383.741" cy="146.075" r="32.279" style="fill:#ff725e" transform="rotate(-33.593 383.75 146.076)"/><g style="opacity:.1"><path d="M388.145 114.083c-17.652-2.419-33.923 9.93-36.342 27.583l-.001.011s22.331 4.098 28.981-4.209c6.649-8.307 7.362-23.385 7.362-23.385" style="fill:#fff"/></g><circle cx="384.155" cy="142.932" r="24.475" style="fill:#ff725e" transform="rotate(-82.871 384.164 142.928)"/><circle cx="384.155" cy="142.932" r="24.475" style="opacity:.2" transform="rotate(-82.871 384.164 142.928)"/><path d="M408.17 149.933c-1.807 13.248-14.012 22.522-27.259 20.715s-22.522-14.012-20.715-27.259 14.012-22.523 27.259-20.715l.022.003c13.238 1.817 22.499 14.016 20.693 27.256" style="fill:#ff725e"/><g style="opacity:.2"><path d="M408.17 149.933c-1.807 13.248-14.012 22.522-27.259 20.715s-22.522-14.012-20.715-27.259 14.012-22.523 27.259-20.715l.022.003c13.238 1.817 22.499 14.016 20.693 27.256" style="fill:#fff"/></g><path d="m385.426 144.687.842-6.129c1.103.294 2.162.732 3.15 1.303q.745.529 1.39 1.178l.103-.186 1.251-2.079.268-.486-.934-1.297-.561.156a11.7 11.7 0 0 0-4.249-1.877l.459-3.382-.934-.99-.117.844-1.438-.19-.477 3.435c-4.805-.197-7.446 2.236-7.855 5.297-.576 4.227 2.89 5.819 6.156 7.102l-.836 6.08a11.75 11.75 0 0 1-5.755-3.172l-1.789 2.882c1.394 1.592 4.147 2.962 7.098 3.553l-.347 2.546-1.191-.139 1.076.963 2.505.324.472-3.407c4.839.174 7.495-2.209 7.917-5.295.59-4.176-2.942-5.743-6.204-7.034m-2.401-.974c-1.692-.764-2.91-1.604-2.714-3.07.195-1.467 1.269-2.302 3.448-2.326zm1.155 10.041.738-5.384c1.754.766 2.999 1.653 2.794 3.136-.185 1.314-1.266 2.219-3.532 2.248" style="fill:#ff725e"/><path d="m385.426 144.687.842-6.129c1.103.294 2.162.732 3.15 1.303q.745.529 1.39 1.178l.103-.186 1.251-2.079.268-.486-.934-1.297-.561.156a11.7 11.7 0 0 0-4.249-1.877l.459-3.382-.934-.99-.117.844-1.438-.19-.477 3.435c-4.805-.197-7.446 2.236-7.855 5.297-.576 4.227 2.89 5.819 6.156 7.102l-.836 6.08a11.75 11.75 0 0 1-5.755-3.172l-1.789 2.882c1.394 1.592 4.147 2.962 7.098 3.553l-.347 2.546-1.191-.139 1.076.963 2.505.324.472-3.407c4.839.174 7.495-2.209 7.917-5.295.59-4.176-2.942-5.743-6.204-7.034m-2.401-.974c-1.692-.764-2.91-1.604-2.714-3.07.195-1.467 1.269-2.302 3.448-2.326zm1.155 10.041.738-5.384c1.754.766 2.999 1.653 2.794 3.136-.185 1.314-1.266 2.219-3.532 2.248" style="opacity:.3"/><path d="m382.81 156.085-.464 3.411-2.505-.324.467-3.378c-2.967-.579-5.712-1.965-7.11-3.549l1.789-2.882a11.84 11.84 0 0 0 5.754 3.172l.836-6.08c-3.262-1.291-6.727-2.883-6.143-7.106.423-3.106 3.033-5.503 7.847-5.302l.478-3.435 2.505.324-.467 3.378a13.14 13.14 0 0 1 5.91 2.697l-1.674 2.903a12.8 12.8 0 0 0-4.699-2.326l-.843 6.15c3.266 1.283 6.799 2.849 6.211 7.079-.398 3.079-3.036 5.45-7.892 5.268m-.702-13.353.748-5.421c-2.209.04-3.271 1.008-3.408 2.348-.137 1.341.963 2.317 2.66 3.073m4.69 7.805c.201-1.495-1.035-2.378-2.79-3.144l-.738 5.384c2.259-.033 3.347-.934 3.528-2.24" style="fill:#ff725e"/><path d="M377.182 142.141a2.1 2.1 0 0 1-.614-.803 3.87 3.87 0 0 1-.364-2.388 3.8 3.8 0 0 1 1.17-2.123c.23-.267.527-.468.86-.583 0 0-.308.232-.714.663a4 4 0 0 0-1.043 2.046 4.1 4.1 0 0 0 .29 2.273c.2.595.441.887.415.915M383.892 133.571c-.057-.031-.06-.466.033-1.038s.171-.962.255-.98c.083-.017.052.462-.033 1.038-.086.576-.19.995-.255.98" style="fill:#fff"/><path d="M427.011 434.306h37.181v14.003h-37.181z" style="fill:#ebebeb" transform="matrix(-1 0 0 -1 891.202 882.614)"/><path d="M348.97 431.901h116.77v2.933H348.97z" style="fill:#455a64" transform="matrix(-1 0 0 -1 814.71 866.736)"/><path d="M348.97 447.683h116.229v2.933H348.97z" style="fill:#455a64" transform="matrix(-1 0 0 -1 814.17 898.3)"/><path d="m427.011 432.6-.176 17.458H348.97V432.6z" style="fill:#455a64"/><path d="M408.086 441.311c0 2.399 1.884 4.344 4.209 4.344s4.209-1.945 4.209-4.344-1.885-4.344-4.209-4.344-4.209 1.944-4.209 4.344" style="fill:#263238"/><path d="M407.433 441.311c0-2.74 2.182-4.968 4.862-4.968s4.861 2.229 4.861 4.968c0 2.74-2.181 4.969-4.861 4.969s-4.862-2.229-4.862-4.969m1.307 0c0 2.051 1.596 3.72 3.556 3.72 1.961 0 3.555-1.669 3.555-3.72s-1.594-3.72-3.555-3.72-3.556 1.668-3.556 3.72" style="fill:#e0e0e0"/><path d="M429.805 444.875c0 .18 7.64.325 17.061.325 9.425 0 17.063-.145 17.063-.325 0-.179-7.638-.325-17.063-.325-9.422 0-17.061.146-17.061.325M429.805 442.436c0 .18 7.64.325 17.061.325 9.425 0 17.063-.145 17.063-.325 0-.179-7.638-.325-17.063-.325-9.422 0-17.061.146-17.061.325M429.805 439.997c0 .18 7.64.325 17.061.325 9.425 0 17.063-.146 17.063-.325s-7.638-.325-17.063-.325c-9.422 0-17.061.146-17.061.325M429.805 437.558c0 .18 7.64.325 17.061.325 9.425 0 17.063-.146 17.063-.325s-7.638-.325-17.063-.325c-9.422 0-17.061.146-17.061.325" style="fill:#263238"/><path d="M357.605 436.312h35.089v9.343h-35.089z" style="fill:#fff" transform="matrix(-1 0 0 -1 750.299 881.968)"/><path d="M387.228 444.706c.188 0 .34-1.666.34-3.722s-.152-3.722-.34-3.722-.34 1.666-.34 3.722.152 3.722.34 3.722M382.589 444.706c.188 0 .34-1.666.34-3.722s-.152-3.722-.34-3.722-.34 1.666-.34 3.722.152 3.722.34 3.722M377.949 444.706c.188 0 .34-1.666.34-3.722s-.152-3.722-.34-3.722-.34 1.666-.34 3.722.152 3.722.34 3.722M373.309 444.706c.188 0 .34-1.666.34-3.722s-.152-3.722-.34-3.722-.34 1.666-.34 3.722.153 3.722.34 3.722M368.67 444.706c.188 0 .34-1.666.34-3.722s-.152-3.722-.34-3.722-.34 1.666-.34 3.722.152 3.722.34 3.722M364.03 444.706c.188 0 .34-1.666.34-3.722s-.152-3.722-.34-3.722-.34 1.666-.34 3.722.152 3.722.34 3.722" style="fill:#e0e0e0"/><path d="M426.483 450.577c.188 0 .34-4.151.34-9.27 0-5.121-.152-9.271-.34-9.271s-.34 4.15-.34 9.271c0 5.12.153 9.27.34 9.27" style="fill:#263238"/><path d="M422.071 452.505h37.181v14.003h-37.181z" style="fill:#ebebeb" transform="matrix(-1 0 0 -1 881.323 919.013)"/><path d="M344.03 450.101H460.8v2.933H344.03z" style="fill:#ff725e" transform="matrix(-1 0 0 -1 804.83 903.135)"/><path d="M344.03 465.883h116.229v2.933H344.03z" style="fill:#ff725e" transform="matrix(-1 0 0 -1 804.29 934.699)"/><path d="m422.071 450.799-.176 17.458H344.03v-17.458z" style="fill:#ff725e"/><path d="M403.146 459.51c0 2.4 1.884 4.345 4.209 4.345s4.209-1.945 4.209-4.345-1.884-4.344-4.209-4.344-4.209 1.945-4.209 4.344" style="fill:#263238"/><path d="M402.493 459.51c0-2.74 2.181-4.968 4.863-4.968 2.681 0 4.862 2.229 4.862 4.968 0 2.74-2.181 4.969-4.862 4.969s-4.863-2.229-4.863-4.969m1.307 0c0 2.051 1.596 3.721 3.556 3.721s3.556-1.669 3.556-3.721-1.596-3.72-3.556-3.72c-1.961 0-3.556 1.669-3.556 3.72" style="fill:#e0e0e0"/><path d="M424.865 463.075c0 .18 7.64.325 17.061.325 9.425 0 17.063-.145 17.063-.325 0-.179-7.638-.325-17.063-.325-9.422 0-17.061.146-17.061.325M424.865 460.636c0 .18 7.64.325 17.061.325 9.425 0 17.063-.145 17.063-.325s-7.638-.325-17.063-.325c-9.422 0-17.061.145-17.061.325M424.865 458.197c0 .18 7.64.325 17.061.325 9.425 0 17.063-.146 17.063-.325s-7.638-.325-17.063-.325c-9.422 0-17.061.145-17.061.325M424.865 455.758c0 .179 7.64.325 17.061.325 9.425 0 17.063-.146 17.063-.325s-7.638-.325-17.063-.325c-9.422-.001-17.061.145-17.061.325" style="fill:#263238"/><path d="M352.665 454.512h35.089v9.343h-35.089z" style="fill:#fff" transform="matrix(-1 0 0 -1 740.419 918.367)"/><path d="M382.288 462.905c.188 0 .34-1.666.34-3.722s-.152-3.722-.34-3.722-.34 1.666-.34 3.722.153 3.722.34 3.722M377.649 462.905c.188 0 .34-1.666.34-3.722s-.152-3.722-.34-3.722-.34 1.666-.34 3.722.152 3.722.34 3.722M373.009 462.905c.188 0 .34-1.666.34-3.722s-.152-3.722-.34-3.722-.34 1.666-.34 3.722.152 3.722.34 3.722M368.369 462.905c.188 0 .34-1.666.34-3.722s-.152-3.722-.34-3.722-.34 1.666-.34 3.722c.001 2.056.153 3.722.34 3.722M363.73 462.905c.188 0 .34-1.666.34-3.722s-.152-3.722-.34-3.722-.34 1.666-.34 3.722.152 3.722.34 3.722M359.09 462.905c.188 0 .34-1.666.34-3.722s-.152-3.722-.34-3.722-.34 1.666-.34 3.722.153 3.722.34 3.722" style="fill:#e0e0e0"/><path d="M421.543 468.777c.188 0 .34-4.151.34-9.27 0-5.121-.152-9.271-.34-9.271s-.34 4.15-.34 9.271c0 5.119.153 9.27.34 9.27" style="fill:#263238"/><path d="M352.927 404.668v-4.559l99.8.198h5.767v4.428h-5.767v27.302H344.943v-27.369z" style="fill:#ebebeb"/><path d="M458.493 404.735c0 .144-23.613.229-52.733.191-29.131-.039-52.738-.186-52.737-.33s23.608-.229 52.738-.19c29.12.037 52.732.185 52.732.329M452.727 410.847c0 .144-24.13.245-53.89.226-29.77-.019-53.895-.152-53.895-.295 0-.144 24.125-.245 53.895-.225 29.76.018 53.89.15 53.89.294M452.727 417.065c0 .144-24.13.245-53.89.225-29.77-.019-53.895-.152-53.895-.295 0-.144 24.125-.245 53.895-.225 29.76.019 53.89.151 53.89.295M452.727 423.283c0 .144-24.13.245-53.89.225-29.77-.019-53.895-.152-53.895-.295 0-.144 24.125-.245 53.895-.225 29.76.019 53.89.151 53.89.295M452.727 429.501c0 .144-24.13.245-53.89.225-29.77-.019-53.895-.151-53.895-.295s24.125-.245 53.895-.226c29.76.02 53.89.153 53.89.296" style="fill:#263238"/><path d="M377.397 432.037v-31.928h-24.47v4.559h-7.984v27.369z" style="opacity:.3"/><path d="m451.286 287.438-67.735-10.873a6.276 6.276 0 0 0-7.191 5.201l-10.872 67.735a6.275 6.275 0 0 0 5.201 7.19l2.024.325 18.849 3.025 46.862 7.522a6.275 6.275 0 0 0 7.19-5.202l10.872-67.735a6.27 6.27 0 0 0-5.2-7.188" style="fill:#fff"/><path d="m373.294 300.869 80.127 12.862 3.139-19.555a5.817 5.817 0 0 0-4.822-6.665l-68.872-11.055a5.58 5.58 0 0 0-6.396 4.627z" style="fill:#ff725e"/><path d="m406.407 316.715-4.372 27.238-6.304-1.012 3.56-22.18-5.448-.874.812-5.059zM432.48 320.9l-.656 4.086-13.834 21.528-6.848-1.099 13.314-20.534-9.027-1.449-.712 4.436-5.603-.899 1.537-9.573zM403.924 294.557c-.023.142 5.464 1.14 12.254 2.23 6.792 1.09 12.315 1.859 12.337 1.717s-5.463-1.14-12.255-2.23c-6.789-1.09-12.313-1.859-12.336-1.717" style="fill:#263238"/><path d="M451.286 287.438s.275.026.795.163c.516.136 1.284.427 2.121 1.07a6.3 6.3 0 0 1 2.166 3.169 6.3 6.3 0 0 1 .232 2.466c-.104.882-.272 1.799-.419 2.782l-5.26 33.214-3.654 22.933-1.003 6.287c-.179 1.068-.322 2.131-.534 3.227-.225 1.108-.78 2.146-1.547 2.996-.781.834-1.78 1.492-2.899 1.816-1.106.365-2.338.325-3.457.11l-6.863-1.097-60.302-9.662c-2.801-.41-5.117-2.826-5.421-5.603-.103-.685-.037-1.392.063-2.057l.316-1.971.63-3.921 2.473-15.385 4.682-29.083 2.183-13.542.527-3.268a8.4 8.4 0 0 1 .399-1.624c.218-.514.457-1.024.797-1.466.637-.914 1.537-1.611 2.516-2.087a6.6 6.6 0 0 1 3.163-.585c8.282 1.277 15.929 2.557 22.946 3.68l33.19 5.399 9.02 1.49 2.344.398c.528.092.796.151.796.151s-.273-.028-.803-.106l-2.351-.355-9.033-1.408-33.212-5.26c-7.005-1.101-14.703-2.369-22.921-3.623a6.2 6.2 0 0 0-2.98.556c-.921.452-1.769 1.109-2.366 1.971-.32.416-.542.897-.748 1.38a8 8 0 0 0-.376 1.549l-.522 3.269-2.165 13.546-4.656 29.087-2.466 15.386-.629 3.921c-.171 1.319-.554 2.627-.376 3.902.283 2.587 2.441 4.838 5.051 5.221l60.296 9.696 6.862 1.106c1.12.213 2.225.246 3.279-.094 1.051-.302 1.991-.92 2.727-1.702.722-.798 1.245-1.771 1.458-2.814.206-1.054.356-2.147.535-3.205l1.015-6.285 3.707-22.924 5.399-33.192c.153-.979.33-1.906.438-2.771a6.237 6.237 0 0 0-2.302-5.548 6.1 6.1 0 0 0-2.078-1.097c-.251-.092-.454-.114-.584-.153-.133-.031-.199-.053-.199-.053" style="fill:#263238"/><path d="m403.817 290.326.173.028a2.554 2.554 0 0 0 2.926-2.116l2.096-13.056a2.553 2.553 0 0 0-2.116-2.925l-.173-.028a2.55 2.55 0 0 0-2.925 2.116l-2.096 13.056a2.55 2.55 0 0 0 2.115 2.925" style="fill:#e0e0e0"/><path d="M403.817 290.326c.034-.065-.659-.068-1.384-.847a2.46 2.46 0 0 1-.616-1.725c.079-.724.272-1.612.424-2.559l1.134-6.712.652-3.966c.082-.65.409-1.232.938-1.62.532-.386 1.201-.526 1.888-.384.66.104 1.247.507 1.587 1.059.355.564.419 1.202.271 1.873l-.622 3.972-1.024 6.73-.201 1.367c-.071.435-.096.846-.221 1.18a2.5 2.5 0 0 1-1.223 1.366c-.965.446-1.61.191-1.603.266-.002.017.139.064.429.108.287.034.735.026 1.259-.19a2.68 2.68 0 0 0 1.41-1.446c.157-.388.192-.809.276-1.231l.237-1.362 1.134-6.713.652-3.967c.163-.683.103-1.565-.334-2.226a2.82 2.82 0 0 0-1.944-1.299c-.762-.164-1.644.002-2.275.479-.644.461-1.051 1.222-1.136 1.956l-.622 3.971-1.024 6.73c-.131.968-.293 1.803-.352 2.611a2.65 2.65 0 0 0 .759 1.87c.398.405.817.572 1.094.651.281.079.437.068.437.058" style="fill:#263238"/><path d="m428.278 294.252.173.028a2.553 2.553 0 0 0 2.925-2.116l2.096-13.056a2.553 2.553 0 0 0-2.116-2.925l-.173-.028a2.554 2.554 0 0 0-2.926 2.116l-2.096 13.056a2.554 2.554 0 0 0 2.117 2.925" style="fill:#e0e0e0"/><path d="M428.278 294.252c.033-.065-.659-.068-1.384-.847a2.46 2.46 0 0 1-.616-1.725c.079-.724.272-1.612.424-2.559l1.134-6.712.652-3.967a2.35 2.35 0 0 1 .938-1.619c.532-.386 1.201-.526 1.888-.384.66.104 1.247.507 1.587 1.059.355.564.419 1.202.271 1.873l-.622 3.972-1.024 6.731-.201 1.367c-.071.435-.096.846-.221 1.18a2.5 2.5 0 0 1-1.223 1.366c-.965.445-1.611.19-1.603.265-.002.017.139.063.428.108.287.034.736.026 1.259-.191a2.68 2.68 0 0 0 1.41-1.446c.157-.388.193-.808.276-1.231l.237-1.362 1.134-6.713.652-3.967c.164-.683.103-1.565-.334-2.226a2.82 2.82 0 0 0-1.945-1.299c-.762-.164-1.644.002-2.274.479-.644.461-1.051 1.222-1.136 1.956l-.622 3.971-1.024 6.73c-.131.968-.293 1.803-.352 2.611a2.65 2.65 0 0 0 .759 1.87c.398.405.817.572 1.094.651.281.08.437.069.438.059" style="fill:#263238"/><path d="M454.851 240.978V149.09a5.623 5.623 0 0 0-5.623-5.623H307.392a5.623 5.623 0 0 0-5.623 5.623v91.887a5.623 5.623 0 0 0 5.623 5.623h141.835a5.62 5.62 0 0 0 5.624-5.622" style="fill:#fff"/><path d="M448.587 246.871H307.312a5.794 5.794 0 0 1-5.794-5.794v-60.936H455.06v60.257a6.473 6.473 0 0 1-6.473 6.473" style="fill:#e0e0e0"/><path d="M449.763 246.871h-20.379v-42.372h25.46v37.291a5.08 5.08 0 0 1-5.081 5.081" style="fill:#ff725e"/><path d="M329.941 228.515h76.011v18.356h-76.011z" style="fill:#f5f5f5"/><path d="M372.474 213.047v.808l-3.364 7.511h-1.26l3.292-7.286h-3.803v1.486h-1.141v-2.52h6.276zM397.361 219.013c0 1.509-1.284 2.449-3.316 2.449-2.021 0-3.292-.939-3.292-2.449 0-.951.523-1.652 1.462-2.009-.761-.357-1.165-.975-1.165-1.795 0-1.391 1.2-2.258 2.995-2.258 1.807 0 3.019.868 3.019 2.258 0 .82-.416 1.438-1.177 1.795.951.369 1.474 1.058 1.474 2.009m-1.189-.036c0-.915-.808-1.485-2.128-1.485-1.319 0-2.104.57-2.104 1.485 0 .939.784 1.521 2.104 1.521 1.32.001 2.128-.582 2.128-1.521m-3.946-3.719c0 .82.677 1.331 1.819 1.331 1.153 0 1.854-.511 1.854-1.331 0-.832-.737-1.343-1.854-1.343-1.118 0-1.819.51-1.819 1.343M318.345 236.299c0 2.841-1.605 4.362-3.934 4.362-.785 0-1.533-.155-2.068-.487l.452-.927c.44.285.998.392 1.605.392 1.688 0 2.757-1.058 2.757-3.138v-.297c-.487.725-1.367 1.093-2.401 1.093-1.652 0-2.841-.986-2.841-2.52 0-1.604 1.284-2.626 2.936-2.626 2.234 0 3.494 1.498 3.494 4.148m-1.462-1.581c0-.855-.689-1.604-1.985-1.604-1.082 0-1.83.63-1.83 1.617 0 .975.725 1.604 1.89 1.604 1.14 0 1.925-.702 1.925-1.617M397.43 196.821h-1.581v2.045h-1.153v-2.045h-4.623v-.832l4.255-5.444h1.284l-4.077 5.254h3.197v-1.807h1.117v1.807h1.581zM318.232 217.246c0 1.439-1.022 2.591-3.15 2.591-1.177 0-2.341-.38-3.055-1.011l.547-.939c.558.523 1.486.891 2.496.891 1.26 0 1.973-.582 1.973-1.485 0-.939-.594-1.521-2.52-1.521h-1.89l.44-4.35h4.695v1.034h-3.696l-.226 2.282h.927c2.484 0 3.459 1.034 3.459 2.508M345.844 217.176c0 1.605-1.296 2.627-2.948 2.627-2.235 0-3.494-1.498-3.494-4.148 0-2.84 1.604-4.362 3.934-4.362.784 0 1.533.155 2.068.487l-.452.927c-.428-.285-.998-.392-1.592-.392-1.688 0-2.769 1.058-2.769 3.138 0 .095 0 .19.012.297.476-.713 1.355-1.093 2.389-1.093 1.652 0 2.852.986 2.852 2.519m-1.152.048c0-.975-.737-1.604-1.902-1.604-1.129 0-1.914.701-1.914 1.616 0 .856.69 1.605 1.973 1.605 1.082 0 1.843-.631 1.843-1.617M316.503 190.049v8.32h-1.177v-7.286h-1.878v-1.034zM346.292 197.879v1.034h-5.978v-.808l3.388-3.268c.879-.856 1.046-1.379 1.046-1.902 0-.856-.606-1.378-1.771-1.378-.891 0-1.616.285-2.127.903l-.808-.701c.642-.796 1.747-1.26 3.043-1.26 1.735 0 2.853.892 2.853 2.318 0 .808-.238 1.533-1.367 2.615l-2.544 2.448h4.265zM371.416 196.369c0 1.403-1.034 2.544-3.15 2.544-1.189 0-2.354-.38-3.055-1.01l.547-.939c.559.523 1.486.891 2.508.891 1.248 0 1.961-.57 1.961-1.474 0-.879-.63-1.45-2.056-1.45h-.665v-.832l2.092-2.567h-4.006v-1.034h5.491v.808l-2.175 2.686c1.664.155 2.508 1.093 2.508 2.377M365.254 238.751c0-2.709 1.45-4.255 3.399-4.255 1.937 0 3.388 1.545 3.388 4.255s-1.45 4.255-3.388 4.255c-1.949.001-3.399-1.545-3.399-4.255m5.598 0c0-2.127-.903-3.197-2.199-3.197-1.307 0-2.21 1.069-2.21 3.197s.903 3.197 2.21 3.197c1.296 0 2.199-1.069 2.199-3.197M418.4 238.974c0-.238.048-.416.202-.856l.558-1.652h.749l-.44 1.77c.297.107.499.38.499.737 0 .476-.345.808-.796.808-.451.001-.772-.344-.772-.807M438.057 221.924h8.116v.854h-8.116zM438.057 224.499h8.116v.854h-8.116zM440.023 194.386h6.077v.64h-6.077z" style="fill:#263238"/><path d="M446.412 195.338h-6.702v-1.266h6.702zm-6.076-.625 5.451-.015z" style="fill:#263238"/><path d="M440.023 194.385h6.077v.64h-6.077z" style="fill:#263238" transform="rotate(-90 443.061 194.705)"/><path d="M443.693 198.057h-1.265v-6.702h1.265zm-.639-.626h.014l-.014-5.452zM421.019 215.711l-.894-.894-1.923 1.922-1.922-1.922-.895.895 1.922 1.922-1.922 1.922.895.895 1.922-1.922 1.922 1.922.895-.895-1.922-1.922zM415.607 194.385h6.077v.64h-6.077z" style="fill:#263238"/><path d="M421.996 195.338h-6.702v-1.266h6.702zm-6.076-.625 5.451-.015zM399.562 156.17v15.595h-1.137v-14.57h-3.809v-1.025zM414.22 156.17v.802l-6.706 14.793h-1.247l6.639-14.57h-8.755v2.985h-1.114v-4.01zM426.271 167.377c0 2.585-1.871 4.5-5.458 4.5-2.295 0-4.411-.847-5.503-2.094l.579-.869c.958 1.092 2.785 1.916 4.923 1.916 2.807 0 4.3-1.336 4.3-3.453 0-2.094-1.426-3.454-4.545-3.454h-.98v-.824l4.612-5.904h-8.31v-1.025h9.78v.802l-4.679 5.993c3.543.09 5.281 1.872 5.281 4.412M440.393 167.488c0 2.718-2.25 4.389-5.926 4.389s-5.882-1.671-5.882-4.389c0-1.961 1.203-3.32 3.32-3.877-1.782-.579-2.762-1.805-2.762-3.52 0-2.495 2.094-4.032 5.325-4.032 3.23 0 5.369 1.537 5.369 4.032 0 1.715-1.003 2.941-2.807 3.52 2.138.557 3.363 1.939 3.363 3.877m-1.136 0c0-2.072-1.782-3.387-4.79-3.387s-4.746 1.314-4.746 3.387c0 2.094 1.738 3.408 4.746 3.408s4.79-1.314 4.79-3.408m-4.79-4.322c2.651 0 4.233-1.181 4.233-3.03 0-1.916-1.648-3.097-4.233-3.097s-4.188 1.181-4.188 3.075c0 1.871 1.537 3.052 4.188 3.052" style="fill:#263238"/><path d="M313.157 151.028a2.485 2.485 0 0 1-3.02 3.02 2.46 2.46 0 0 1-1.787-1.787 2.485 2.485 0 0 1 3.02-3.02c.866.209 1.578.92 1.787 1.787M321.511 151.028a2.485 2.485 0 0 1-3.02 3.02 2.46 2.46 0 0 1-1.787-1.787 2.485 2.485 0 0 1 3.02-3.02c.867.209 1.578.92 1.787 1.787M329.18 151.028a2.485 2.485 0 0 1-3.02 3.02 2.46 2.46 0 0 1-1.787-1.787 2.485 2.485 0 0 1 3.02-3.02c.866.209 1.578.92 1.787 1.787" style="fill:#e0e0e0"/><path d="M301.679 241.109s.013.114.027.338c.008.224.05.559.146.989.198.839.688 2.156 2 3.21a5.14 5.14 0 0 0 2.488 1.095c.495.083 1.024.062 1.578.061l1.73-.005 8.282-.02 52.782-.07 78.282-.047c1.802.113 3.621-.73 4.665-2.306.54-.762.851-1.691.963-2.636.066-.944.018-1.972.032-2.959l-.003-12.098-.005-24.953-.004-52.474c.028-2.178-1.286-4.271-3.175-5.099a5.4 5.4 0 0 0-1.467-.408c-.497-.049-1.029-.036-1.556-.038h-3.154l-12.51-.001-24.458-.003-46.235-.013-41.837-.02-9.656-.006-2.36-.002c-.789.01-1.562-.05-2.29.143-1.47.349-2.752 1.394-3.461 2.764a5.8 5.8 0 0 0-.623 2.215c-.044.767-.013 1.579-.024 2.361l-.003 4.675-.007 9.044-.066 55.804-.039 15.172-.021 3.946c-.007.886-.021 1.341-.021 1.341s-.014-.455-.021-1.344l-.021-3.946-.039-15.172-.066-55.804-.007-9.044-.003-4.675c.01-.793-.024-1.566.021-2.388a6.15 6.15 0 0 1 .658-2.351c.749-1.455 2.108-2.566 3.67-2.939.787-.206 1.591-.143 2.363-.154l2.36-.002 9.656-.006 41.837-.02 46.235-.013 24.458-.003 12.51-.001h3.154c.526.002 1.049-.014 1.603.04a5.8 5.8 0 0 1 1.585.441c2.04.894 3.458 3.155 3.428 5.505l-.004 52.474-.005 24.953-.003 12.098c-.016 1.007.035 1.97-.036 3.004-.119 1.016-.456 2.013-1.036 2.832-1.108 1.69-3.107 2.596-4.98 2.472l-78.282-.047-52.782-.07-8.282-.02-1.73-.005c-.551-.003-1.087.015-1.594-.073a5.23 5.23 0 0 1-2.524-1.133 5.78 5.78 0 0 1-1.991-3.271 5.2 5.2 0 0 1-.126-.998c-.008-.226-.006-.34-.006-.34" style="fill:#263238"/><path d="M329.941 247.077c-.144 0-.26-14.824-.26-33.106 0-18.288.116-33.109.26-33.109s.26 14.821.26 33.109c0 18.282-.117 33.106-.26 33.106M355.82 228.515c-.144 0-.26-10.669-.26-23.826 0-13.162.117-23.828.26-23.828s.26 10.666.26 23.828c0 13.158-.116 23.826-.26 23.826M381.551 228.515c-.144 0-.26-10.669-.26-23.826 0-13.162.117-23.828.26-23.828s.26 10.666.26 23.828c0 13.158-.116 23.826-.26 23.826M405.951 247.041c-.144 0-.26-14.816-.26-33.088 0-18.279.117-33.091.26-33.091s.26 14.813.26 33.091c.001 18.272-.116 33.088-.26 33.088M429.385 247.041c-.144 0-.26-14.816-.26-33.088 0-18.279.117-33.091.26-33.091s.26 14.813.26 33.091c0 18.272-.116 33.088-.26 33.088" style="fill:#263238"/><path d="M302.077 204.895c0-.144 34.123-.26 76.205-.26 42.097 0 76.212.117 76.212.26s-34.115.26-76.212.26c-42.083.001-76.205-.116-76.205-.26M302.077 228.723c0-.144 28.501-.26 63.651-.26 35.162 0 63.657.117 63.657.26s-28.495.26-63.657.26c-35.15 0-63.651-.117-63.651-.26" style="fill:#263238"/><path d="M240.56 184.833H71.89a5.275 5.275 0 0 1-5.275-5.275V77.078a5.275 5.275 0 0 1 5.275-5.275h168.67a5.275 5.275 0 0 1 5.275 5.275v102.479a5.276 5.276 0 0 1-5.275 5.276" style="fill:#fff"/><path d="M240.56 185.332H71.89a5.78 5.78 0 0 1-5.775-5.775V77.078a5.78 5.78 0 0 1 5.775-5.775h168.67a5.78 5.78 0 0 1 5.775 5.775v102.479a5.78 5.78 0 0 1-5.775 5.775M71.89 72.303a4.78 4.78 0 0 0-4.775 4.775v102.479a4.78 4.78 0 0 0 4.775 4.775h168.67a4.78 4.78 0 0 0 4.775-4.775V77.078a4.78 4.78 0 0 0-4.775-4.775z" style="fill:#263238"/><path d="M236.643 165.497H76.672V97.013h159.971zm-159.609-.328h159.247V97.341H77.034z" style="fill:#ebebeb"/><path d="M76.853 153.81h159.609v.328H76.853zM76.853 142.45h159.609v.328H76.853zM76.853 131.091h159.609v.328H76.853zM76.853 119.731h159.609v.328H76.853zM76.853 108.372h159.609v.328H76.853z" style="fill:#ebebeb"/><path d="M91.98 119.026h5.26v46.066h-5.26z" style="fill:#ff725e"/><path d="M100.301 107.886h6.497v57.206h-6.497z" style="fill:#455a64"/><path d="M128.783 152.02h5.259v13.071h-5.259z" style="fill:#ff725e"/><path d="M137.103 125.102h5.259v39.99h-5.259z" style="fill:#455a64"/><path d="M163.108 99.341h5.259v65.751h-5.259z" style="fill:#ff725e"/><path d="M172.667 149.415h5.259v15.676h-5.259z" style="fill:#455a64"/><path d="M197.434 105.998h5.259v59.093h-5.259z" style="fill:#ff725e"/><path d="M205.755 131.121h5.259v33.97h-5.259z" style="fill:#455a64"/><path d="M223.167 160.504h5.259v4.587h-5.259z" style="fill:#ff725e"/><path d="M103.654 172.929H92.947a.83.83 0 0 1-.828-.828v-.517c0-.457.371-.828.828-.828h10.706c.457 0 .828.371.828.828v.517c0 .457-.37.828-.827.828M139.472 172.929h-10.706a.83.83 0 0 1-.828-.828v-.517c0-.457.371-.828.828-.828h10.706c.457 0 .828.371.828.828v.517a.83.83 0 0 1-.828.828M171.091 172.929h-10.707a.83.83 0 0 1-.828-.828v-.517c0-.457.371-.828.828-.828h10.707c.457 0 .828.371.828.828v.517a.83.83 0 0 1-.828.828M203.656 172.929H192.95a.83.83 0 0 1-.828-.828v-.517c0-.457.371-.828.828-.828h10.706c.457 0 .828.371.828.828v.517c0 .457-.37.828-.828.828M231.253 172.929h-10.706a.83.83 0 0 1-.828-.828v-.517c0-.457.371-.828.828-.828h10.706c.457 0 .828.371.828.828v.517a.83.83 0 0 1-.828.828M81.571 84.323a2.45 2.45 0 1 1-4.898 0 2.45 2.45 0 0 1 4.898 0M88.394 84.323a2.45 2.45 0 1 1-4.899 0 2.45 2.45 0 0 1 4.899 0M95.218 84.323a2.45 2.45 0 1 1-4.899 0 2.45 2.45 0 0 1 4.899 0" style="fill:#e0e0e0"/><path d="M128.369 315.778c-.885.969 6.309 12.635 9.208 19.992s17.323 41.541 29.585 41.764 21.626-5.351 29.652-16.721 21.403-71.566 21.403-71.566l-21.849-21.849-25.193 71.12s-20.35-25.243-24.444-28.005c-4.094-2.761-18.362 5.265-18.362 5.265" style="fill:#ae7461"/><path d="m332.243 422.248-5.525-41.085-114.787 3.233s-9.988 59.654-9.482 84.449h66.353l.553-8.31 3.539.768s.822 3.328 1.76 7.542l64.361.118z" style="fill:#263238"/><path d="m213.663 315.36-33.441-11.397s18.344-72.522 43.937-72.522z" style="fill:#ff725e"/><path d="m321.567 337.163-3.969-108.581c-6.264-2.859-33.071-6.3-33.071-6.3l-34.879 4.907-29.054 4.981-7.792 74.161-3.281 102.574c37.332 13.775 82.881 9.135 122.941-1.052z" style="fill:#ff725e"/><path d="M255.303 275.012s19.485 41.448 36.763 56.844 31.574 18.754 31.574 18.754l-2.073-13.447z" style="opacity:.3"/><path d="M213.75 260.219c.144.006-.197 11.34-.761 25.313-.564 13.977-1.138 25.3-1.281 25.294s.197-11.338.761-25.315c.563-13.973 1.137-25.298 1.281-25.292" style="fill:#263238"/><path d="M310.77 226.693s30.895 2.761 35.006 34.975c1.901 14.898 5.418 38.421 5.418 38.421l-30.347 2.65-4.186-3.102c-2.331-6.958-6.37-21.302-5.803-21.813.769-.693-.088-51.131-.088-51.131" style="fill:#ff725e"/><path d="M244.227 367.858c-.021-.029.461-.405 1.349-1.061.886-.658 2.191-1.579 3.822-2.691 3.261-2.225 7.857-5.168 13.088-8.159 5.235-2.987 10.106-5.452 13.679-7.13 1.786-.84 3.242-1.496 4.259-1.925 1.016-.432 1.584-.656 1.599-.623s-.525.318-1.514.807l-4.183 2.072a283 283 0 0 0-13.582 7.251 283 283 0 0 0-13.143 8.013l-3.911 2.551c-.922.604-1.442.924-1.463.895M261.565 362.006c-.034-.056.837-.668 2.333-1.513 1.495-.845 3.631-1.897 6.085-2.832a46 46 0 0 1 6.431-1.924c1.68-.363 2.737-.483 2.749-.419.015.077-1.015.325-2.661.776a71 71 0 0 0-6.334 2.053 71 71 0 0 0-6.098 2.671c-1.53.756-2.465 1.255-2.505 1.188M314.993 298.535c-.144-.008.255-9.764.89-21.788.635-12.029 1.266-21.77 1.41-21.763.144.008-.255 9.762-.89 21.79-.635 12.025-1.267 21.768-1.41 21.761M217.369 163.087c-3.702 1.51-8.368.102-10.617-3.204-.676-.995-1.155-2.178-1.062-3.378s.856-2.392 2.009-2.738c-1.826-.677-3.425-2.05-4.186-3.842s-.603-3.993.567-5.55 3.368-2.321 5.196-1.652c-.552-2.03.189-4.352 1.815-5.687l8.795-.18z" style="fill:#263238"/><path d="m247.159 228.365-1.531-5.955s-18.102 1.54-22.569-15.844c-2.157-8.396-5.192-26.047-7.753-42.054-2.754-17.21 8.171-33.646 25.104-37.774l1.682-.41c18.4-3.363 31.535 10.384 34.388 28.871l9.43 67.729-27.758 20.872z" style="fill:#ae7461"/><path d="M245.628 222.41s11.217-1.756 21.56-10.375c0 0-2.637 12.142-20.419 14.814z" style="fill:#6f4439"/><path d="M224.372 181.527c.274 1.326 1.623 2.188 3.013 1.927 1.388-.261 2.294-1.545 2.02-2.871-.275-1.326-1.623-2.189-3.011-1.929-1.391.261-2.296 1.547-2.022 2.873M221.134 172.13c.388.249 1.933-1.607 4.615-2.253 2.669-.684 4.972.215 5.182-.183.108-.18-.35-.69-1.358-1.104-.994-.416-2.579-.669-4.247-.255-1.666.416-2.921 1.373-3.574 2.199-.67.832-.805 1.487-.618 1.596M247.195 176.409c.274 1.326 1.623 2.188 3.013 1.927 1.388-.26 2.294-1.544 2.02-2.871s-1.624-2.189-3.012-1.928c-1.391.259-2.296 1.546-2.021 2.872M247.595 166.208c.388.249 1.937-1.607 4.617-2.253 2.668-.684 4.971.215 5.182-.184.107-.18-.347-.69-1.359-1.104-.994-.416-2.579-.669-4.246-.255-1.667.416-2.921 1.373-3.575 2.198-.668.834-.805 1.489-.619 1.598M242.716 188.451c-.025-.156-1.761-.038-4.544.275-.701.097-1.382.118-1.611-.321-.282-.455-.175-1.262-.038-2.139l.753-5.703c1.002-8.103 1.549-14.699 1.222-14.737-.327-.037-1.404 6.5-2.405 14.604-.23 1.994-.452 3.896-.661 5.714-.069.84-.299 1.831.3 2.772.309.466.902.715 1.369.726.471.027.858-.059 1.201-.122 2.753-.516 4.44-.915 4.414-1.069M245.22 162.167c.575.553 2.89-.981 5.965-2.058 3.055-1.14 5.814-1.441 5.903-2.234.03-.374-.689-.806-1.957-.992-1.258-.189-3.06-.071-4.898.592-1.837.667-3.297 1.728-4.143 2.679-.855.952-1.132 1.745-.87 2.013M220.229 164.134c.62.494 2.311-.588 4.524-1.159 2.192-.648 4.199-.59 4.476-1.333.114-.355-.33-.893-1.292-1.269-.949-.377-2.417-.516-3.931-.098-1.513.42-2.701 1.294-3.321 2.106-.632.817-.737 1.507-.456 1.753" style="fill:#263238"/><path d="M215.034 156.106s1.937-12.041 6.581-15.873c5.622-4.639 10.073 1.689 15.734-1.49s11.024-7.623 18.378-4.441c8.048 3.483 5.744 7.866 8.05 15.5 9.349 30.953 17.24 38.427 15.267 23.255-.216-1.662 3.962-4.045 2.961-11.046-1.299-9.079-3.583-19.929-7.097-25.74-2.961-4.898-6.879-7.825-13.287-10.544-10.117-4.291-21.91-1.561-29.7 1.19-7.791 2.75-20.949 15.694-16.887 29.189" style="fill:#263238"/><path d="M277.816 172.854c-.546-2.718 1.255-5.408 3.999-5.807 3.327-.484 7.396.481 8.82 7.253 2.526 12.014-10.057 12.072-10.15 11.732-.064-.232-1.656-8.141-2.669-13.178" style="fill:#ae7461"/><path d="M282.148 180.962c.045-.05.241.103.628.19.378.085.994.07 1.571-.297 1.171-.732 1.816-2.972 1.419-5.15a7.1 7.1 0 0 0-1.216-2.873c-.551-.802-1.249-1.296-1.912-1.275a1.09 1.09 0 0 0-1.114.833c-.091.37.036.593-.023.627-.027.037-.3-.148-.308-.664 0-.249.081-.562.315-.852.239-.296.638-.504 1.093-.55.94-.131 1.953.547 2.578 1.403a7.26 7.26 0 0 1 1.43 3.196c.432 2.437-.331 4.964-1.963 5.83-.799.399-1.557.292-1.981.085-.434-.218-.554-.473-.517-.503" style="fill:#6f4439"/><path d="M230.816 149.929c-.029.007-.053.023-.082.031-.07.022-.142.04-.211.065z" style="fill:#ff725e"/><path d="M203.926 134.447c.334-3.281 2.702-6.119 5.617-7.661s6.31-1.943 9.607-1.86c-1.247-4.285 2.814-8.638 7.207-9.428s8.811.901 12.955 2.559c4.596-4.398 13.022-3.697 16.828 1.4 2.787-2.425 6.895-3.224 10.387-2.021s6.236 4.364 6.937 7.991c2.955-.063 5.884 1.613 7.326 4.193 1.443 2.58 1.338 5.952-.263 8.437 2.282.844 3.881 3.258 3.769 5.688s-1.927 4.686-4.277 5.316l-10.334-5.849c-4.573 1.864-10.456-1.05-11.743-5.818-3.334 2.191-8.002 2.123-11.271-.163-.317 2.408-1.897 4.613-4.075 5.687s-4.89.985-6.993-.23c.388 3.289-1.284 6.733-4.109 8.463s-6.652 1.653-9.405-.188c-2.472 3.146-7.471 3.918-10.778 1.665-3.306-2.253-4.415-7.189-2.391-10.64-3.219-.714-5.327-4.259-4.994-7.541" style="fill:#263238"/><path d="M258.978 139.268c-.04.02.062.379.439.943.377.555 1.06 1.318 2.17 1.903 1.088.581 2.667.967 4.347.537 1.651-.406 3.363-1.575 4.28-3.432l-.699.126a7.5 7.5 0 0 0 2.826 1.686c2.295.751 4.772.415 6.542-.717 1.802-1.124 2.758-2.881 3.163-4.357.41-1.506.283-2.791.082-3.616-.218-.831-.48-1.232-.523-1.213-.182.018.723 1.853-.163 4.647-.448 1.342-1.382 2.891-2.989 3.838-1.575.962-3.791 1.239-5.832.57a6.8 6.8 0 0 1-2.498-1.47l-.441-.411-.258.538c-.763 1.595-2.243 2.667-3.686 3.069-1.459.425-2.866.156-3.9-.309-2.112-.984-2.741-2.439-2.86-2.332" style="fill:#455a64"/><path d="M252.28 193.495c.007.155-1.474.163-2.921 1.125-1.469.93-2.079 2.278-2.218 2.209-.059-.023.006-.399.302-.933.291-.532.847-1.2 1.633-1.712.788-.509 1.624-.745 2.229-.793.609-.053.979.04.975.104" style="fill:#263238"/><path d="m241.926 267.71-2.287 2.993c-1.62.921-3.024.214-3.796-1.827l-18.839-34.98 5.589-2.904 21.229 33.822c-.001-.001.19 1.71-1.896 2.896" style="fill:#455a64"/><path d="M194.512 231.356a24.15 24.15 0 0 1-9.081-11.741 24.13 24.13 0 0 1 .845-18.568c2.753-5.874 7.628-10.325 13.728-12.532 12.592-4.557 26.544 1.981 31.101 14.574 2.207 6.1 1.907 12.695-.846 18.568a24.13 24.13 0 0 1-13.728 12.532c-7.64 2.764-15.781 1.444-22.019-2.833m26.591-38.668c-5.821-3.992-13.416-5.223-20.545-2.644a22.5 22.5 0 0 0-12.808 11.693 22.5 22.5 0 0 0-.789 17.325 22.5 22.5 0 0 0 11.693 12.809 22.5 22.5 0 0 0 17.325.789 22.5 22.5 0 0 0 12.808-11.693 22.5 22.5 0 0 0 .789-17.325 22.54 22.54 0 0 0-8.473-10.954" style="fill:#263238"/><path d="M195.631 230.431a24.15 24.15 0 0 1-9.081-11.741 24.13 24.13 0 0 1 .846-18.568c2.753-5.874 7.628-10.325 13.728-12.532 12.592-4.557 26.544 1.981 31.101 14.574a24.13 24.13 0 0 1-.846 18.568c-2.752 5.874-7.628 10.324-13.728 12.532-7.64 2.764-15.782 1.445-22.02-2.833m26.591-38.668c-5.821-3.992-13.416-5.223-20.545-2.643a22.51 22.51 0 0 0-12.809 11.693 22.5 22.5 0 0 0-.789 17.325 22.5 22.5 0 0 0 11.693 12.809 22.5 22.5 0 0 0 17.325.789 22.5 22.5 0 0 0 12.808-11.692 22.5 22.5 0 0 0 .789-17.325 22.53 22.53 0 0 0-8.472-10.956" style="fill:#455a64"/><path d="M202.511 230.012c.023-.058 1.091.449 2.932.867l.724.152c.252.051.52.075.793.116.547.093 1.139.115 1.76.158a20.6 20.6 0 0 0 4.033-.277 20.6 20.6 0 0 0 3.883-1.131c.568-.254 1.117-.479 1.598-.755.243-.133.486-.247.705-.382l.627-.392c1.584-1.027 2.412-1.871 2.453-1.825.012.013-.195.22-.583.585a7 7 0 0 1-.735.631c-.3.23-.628.512-1.035.762l-.625.411c-.219.141-.462.261-.706.4-.483.287-1.035.523-1.608.786a19.8 19.8 0 0 1-3.929 1.165 20 20 0 0 1-4.089.26c-.629-.049-1.228-.08-1.781-.183-.277-.046-.546-.075-.8-.132l-.729-.17c-.468-.094-.873-.247-1.234-.359a7 7 0 0 1-.908-.339c-.487-.208-.753-.331-.746-.348" style="fill:#fff"/><path d="M276.245 270.303c-5.802-5.556-33.267-33.115-33.938-33.503-.843-.488-13.884-6.447-16.597-5.136-2.712 1.311-10.384 9.383-10.384 9.383s.184 5.454 6.552 2.119l5.697-2.983-.01.005 6.279 2.058s-8.103 2.581-9.907 4.153-4.994 7.917-3.495 9.573 3.381 1.951 3.381 1.951-3.628 4.301 1.854 7.569c0 0 .499 3.926 3.191 5.683s8 1.683 8 1.683 2.566-1.23.963-3.78c-1.603-2.551-4.918-3.174-4.918-3.174l4.355-2.055s2.098.849 5.076 3.595c0 0 8.731 9.394 12.749 6.987l5.682 6.758c4.328-2.636 15.47-10.886 15.47-10.886" style="fill:#ae7461"/><path d="M236.295 256.054c-.001-.019-.22-.034-.618-.018a9.5 9.5 0 0 0-1.67.237c-1.387.305-3.279 1.082-4.905 2.567s-2.572 3.299-3.001 4.653a9.5 9.5 0 0 0-.387 1.642c-.053.395-.057.615-.039.617.058.01.147-.87.631-2.188a11.6 11.6 0 0 1 3.003-4.498 11.6 11.6 0 0 1 4.751-2.583c1.356-.362 2.24-.371 2.235-.429M237.181 249.103c-.001-.021-.236-.024-.661-.011a6 6 0 0 0-.774.058c-.3.039-.646.066-1.018.15-.753.13-1.633.373-2.581.723-.941.367-1.947.85-2.935 1.474a17 17 0 0 0-2.57 2.047c-.715.715-1.305 1.412-1.738 2.04-.233.303-.402.605-.563.862a6 6 0 0 0-.377.678c-.191.381-.286.595-.267.605.054.029.473-.815 1.383-2.016a17 17 0 0 1 1.76-1.965 18.5 18.5 0 0 1 2.538-1.992c.97-.612 2.084-1.299 3.003-1.674.926-.357 1.654-.414 2.391-.569 1.471-.322 2.413-.349 2.409-.41M239.052 241.195c.011-.033-.301-.186-.854-.272-.549-.088-1.341-.07-2.157.194-1.105.362-1.519.773-1.859 1.113-.396.394-.559.702-.53.722.066.07.913-1.049 2.484-1.542 1.561-.526 2.904-.12 2.916-.215" style="fill:#6f4439"/><path d="M226.219 201.116c-.5-.951-1.19-1.945-2.242-2.163-1.097-.227-2.21.519-2.77 1.491-.559.971-.689 2.122-.811 3.236-.31 2.838-.648 5.712-1.693 8.368s-2.892 5.115-5.493 6.293c-2.105.954-4.49.996-6.798 1.1s-4.718.319-6.675 1.547l-.059.037c-2.759 1.757-2.368 5.927.619 7.259 6.883 3.068 15.579 2.026 21.322-2.93 6.718-5.799 8.727-16.38 4.6-24.238" style="opacity:.1"/><path d="m349.145 299.671-28.411 2.385c-6.548-4.326-52.216-39.743-53.546-40.668l-11.885 13.623c24.919 30.208 42.376 52.273 63.359 67.77 10.37 7.659 27.257 3.524 31.628-10.454 2.138-6.835-1.145-32.656-1.145-32.656" style="fill:#ae7461"/><path d="M205.606 469.331s10.212 1.425 10.939 1.647c.243.074 27.682.074 27.682.074l-.721-12.713-31.199.692z" style="opacity:.3"/><path d="M206.328 457.61s10.363 2.142 10.939 1.647 26.239-.917 26.239-.917l-.721-10.204-31.237-1.029z" style="opacity:.3"/><path d="M206.328 446.47s9.51 1.25 10.085.755 26.371.91 26.371.91l-1.395-22.596-30.024 8.121z" style="opacity:.3"/><path d="M109.431 267.398s68.638 106.291 63.824 178.599l40.945 25.054h30.027c-1.639-18.784-1.414-49.511-10.577-92.615-23.577-110.913-65.47-111.223-65.47-111.223z" style="fill:#e0e0e0"/><path d="m241.355 436.457-68.568 11.723c.573 2.192-.521 4.937-2.031 6.443s-3.627 2.212-5.69 2.754a57.6 57.6 0 0 1-12.377 1.844c-2.198.086-4.43.049-6.554.623-2.123.574-4.179 1.88-5.038 3.905-.86 2.025-.121 7.229 5.103 7.229h69.63c-5.224 0-5.963-5.204-5.103-7.229s2.915-3.33 5.039-3.905 4.356-.538 6.553-.623a57.6 57.6 0 0 0 12.377-1.844c2.063-.542 4.18-1.248 5.69-2.754s1.291-15.635.969-18.166" style="fill:#e0e0e0"/><path d="m241.298 426.318-67.416 10.001c.573 2.192-.521 4.937-2.031 6.443s-3.627 2.212-5.69 2.754a57.6 57.6 0 0 1-12.377 1.844c-2.198.086-4.43.049-6.554.624-2.123.574-4.179 1.88-5.038 3.904-.86 2.025-.121 7.229 5.103 7.229h69.63c-5.224 0-5.963-5.204-5.103-7.229s2.915-3.33 5.039-3.904 4.356-.538 6.554-.624a57.6 57.6 0 0 0 12.377-1.844c2.063-.542 4.18-1.248 5.69-2.754 1.509-1.506.138-13.913-.184-16.444" style="fill:#e0e0e0"/><path d="m241.019 423.863-68.231 2.252c.573 2.066-.521 4.652-2.031 6.071s-3.627 2.085-5.69 2.595a61 61 0 0 1-12.377 1.737c-2.198.081-4.43.046-6.554.587-2.123.541-4.179 1.771-5.038 3.679-.86 1.908-.121 6.812 5.103 6.812l69.417-.777c-5.224 0-5.749-4.126-4.89-6.034.86-1.908 2.915-3.138 5.039-3.679s4.356-.507 6.553-.587a61 61 0 0 0 12.377-1.737c2.063-.51 4.18-1.176 5.69-2.595 1.509-1.42.954-5.939.632-8.324" style="fill:#e0e0e0"/><path d="M134.714 319.422s-8.028-17.378-9.589-22.181 2.453-7.479 6.244-10.378 17.618-4.014 18.286-1.561.446 6.021-1.561 6.244-9.589-.207-14.049 5.695c0 0 18.51-4.117 22.97 0s-3.791 5.678-3.791 5.678 2.453 4.014.223 5.129-14.495 3.568-14.495 3.568l-.223 1.784s6.021-.446 10.035.669 5.798 5.352 5.798 5.352c-.892 3.345-2.453 3.345-4.683 1.784s-3.791-1.784-3.791-1.784-3.568 4.46-6.021 4.683c-2.454.224-5.353-4.682-5.353-4.682" style="fill:#ae7461"/><path d="M164.824 267.205s-14.163 15.613-11.701 39.997 2.419 51.46 2.419 51.46l-8.224-19.876-5.761-57.232 11.633-12.761z" style="opacity:.3"/><path d="m164.824 267.205-58.406.009s-24.117.496-24.117 48.041c0 61.579 14.14 82.606-23.412 117.76l60.605 7.61s28.674-2.756 28.644-54.057c-.014-23.412-1.084-64.965-2.365-84.988-.933-14.588 9.829-33.379 19.051-34.375" style="fill:#fff"/><path d="m164.824 267.205-.933.187a11.4 11.4 0 0 0-2.588 1.04c-2.166 1.174-4.959 3.655-7.637 7.545-2.655 3.885-5.312 9.157-6.853 15.749-1.802 6.615-.382 14.421-.188 23.01.754 17.212 1.38 37.891 1.669 61.189.033 5.823.195 11.815-.146 17.959-.354 6.133-1.162 12.423-2.92 18.633-1.719 6.194-4.413 12.367-8.641 17.625-2.131 2.598-4.61 4.981-7.491 6.853-2.877 1.858-6.07 3.348-9.577 3.883l-.022.003-.034-.004-54.811-6.876-5.794-.728-.542-.068.397-.38c3.031-2.904 6.007-5.835 8.72-8.966 2.714-3.126 5.242-6.378 7.454-9.805 4.43-6.852 7.353-14.491 8.629-22.275 1.313-7.788 1.273-15.597.962-23.183-.314-7.596-.898-15.022-1.334-22.273-.451-7.25-.785-14.327-.943-21.204q-.12-5.16-.109-10.164l.164-4.967c.058-1.642.069-3.272.287-4.877l.502-4.779c.056-.793.23-1.566.371-2.341l.433-2.31.429-2.288c.161-.755.406-1.487.603-2.226l.622-2.199c.204-.73.394-1.461.698-2.15 1.952-5.663 4.966-10.806 9.095-14.49a20.9 20.9 0 0 1 6.808-4.256 15.8 15.8 0 0 1 3.763-.974c1.297-.102 2.533-.026 3.775-.047l13.972.028 22.324.083zl-19.063.051-22.253.09-13.882.032c-4.926-.565-10.116 1.528-14.088 5.221-4.061 3.638-7.037 8.728-8.964 14.353-.301.683-.488 1.41-.689 2.136l-.614 2.185c-.195.735-.436 1.462-.596 2.213l-.423 2.277-.427 2.298c-.138.77-.311 1.539-.365 2.329l-.493 4.759c-.215 1.597-.224 3.223-.279 4.858l-.157 4.949a405 405 0 0 0 .121 10.152c.166 6.871.508 13.939.965 21.186.442 7.248 1.032 14.672 1.352 22.282.316 7.598.364 15.439-.955 23.288-1.28 7.844-4.232 15.565-8.694 22.469-2.227 3.453-4.771 6.726-7.498 9.868-2.726 3.148-5.713 6.091-8.755 9.005l-.146-.448 5.794.728 54.81 6.889-.056-.001c3.349-.509 6.537-1.975 9.35-3.798 2.833-1.839 5.277-4.184 7.381-6.745 4.175-5.185 6.852-11.295 8.564-17.444 1.751-6.163 2.562-12.421 2.921-18.529.346-6.113.192-12.106.167-17.928-.258-23.292-.845-43.97-1.555-61.179-.193-4.302-.378-8.387-.616-12.24-.309-3.866.117-7.536.881-10.842 1.575-6.624 4.267-11.904 6.957-15.792 2.713-3.892 5.542-6.368 7.739-7.524a11 11 0 0 1 2.621-1.006c.304-.064.535-.079.696-.106z" style="fill:#263238"/><path d="M102.212 427.397h9.809s.535 13.027 11.029 12.144c0 0-2.223 1.461-5.218 1.084-2.997-.375-12.348 1.922-15.62-13.228" style="opacity:.3"/><path d="M30.795 420.825s-1.547 18.669 21.697 19.786 65.399 0 65.399 0-14.639-2.64-14.639-18.561z" style="fill:#e0e0e0"/><path d="M30.795 420.825q-.006-.008.339-.011l1.029.001 4.016.035 15.077.184 51.999.764.247.004v.248c-.003 3.977 1.053 8.19 3.641 11.56 2.556 3.374 6.532 5.749 10.793 6.745l1.988.465-2.027.052-.128.003c-13.572.327-26.503.486-38.265.47-5.881-.014-11.47-.059-16.699-.182-5.229-.167-10.101-.192-14.542-.803-4.415-.709-8.269-2.342-11.031-4.603-2.795-2.243-4.382-5.008-5.256-7.331a19 19 0 0 1-1.199-5.602 14 14 0 0 1-.025-1.492c.009-.334.04-.519.043-.507.006.012.005.17.01.507-.001.335.021.833.077 1.483.117 1.294.38 3.228 1.283 5.537.894 2.288 2.484 4.993 5.25 7.177 2.734 2.201 6.536 3.786 10.906 4.465 4.381.58 9.274.588 14.493.735 5.226.105 10.812.133 16.69.134 11.757-.011 24.685-.184 38.251-.511l.128-.003-.039.517a20.3 20.3 0 0 1-6.214-2.554c-1.887-1.172-3.591-2.636-4.895-4.388-2.67-3.479-3.746-7.823-3.735-11.875l.247.251-51.83-.991-15.129-.326-4.066-.102-1.058-.034a3 3 0 0 1-.369-.022M133.763 350.536c0 .27-5.268.489-11.765.489-6.499 0-11.766-.219-11.766-.489s5.267-.489 11.766-.489c6.496 0 11.765.219 11.765.489M93.075 350.611c0-.27 1.47-.489 3.283-.489s3.283.219 3.283.489-1.47.489-3.283.489-3.283-.219-3.283-.489M135.217 341.949c0 .27-5.268.489-11.765.489-6.499 0-11.766-.219-11.766-.489s5.267-.489 11.766-.489c6.497 0 11.765.219 11.765.489M93.075 342.438c0-.27 1.47-.489 3.283-.489s3.283.219 3.283.489-1.47.489-3.283.489-3.283-.219-3.283-.489M134.95 334.681c0 .27-5.268.489-11.765.489-6.499 0-11.766-.219-11.766-.489s5.267-.489 11.766-.489c6.497 0 11.765.219 11.765.489M93.075 334.756c0-.27 1.47-.489 3.283-.489s3.283.219 3.283.489-1.47.489-3.283.489-3.283-.219-3.283-.489M134.029 326.148c0 .27-5.268.489-11.765.489-6.499 0-11.766-.219-11.766-.489s5.267-.489 11.766-.489c6.497 0 11.765.219 11.765.489M91.888 326.637c0-.27 1.47-.489 3.283-.489s3.283.219 3.283.489-1.47.489-3.283.489-3.283-.219-3.283-.489M133.762 318.88c0 .27-5.268.489-11.765.489-6.499 0-11.766-.219-11.766-.489s5.267-.489 11.766-.489c6.497 0 11.765.219 11.765.489M91.888 318.955c0-.27 1.47-.489 3.283-.489s3.283.219 3.283.489-1.47.489-3.283.489c-1.813-.001-3.283-.22-3.283-.489M132.928 310.347c0 .27-5.268.489-11.765.489-6.499 0-11.766-.219-11.766-.489s5.267-.489 11.766-.489c6.497 0 11.765.219 11.765.489M90.786 310.836c0-.27 1.47-.489 3.283-.489s3.283.219 3.283.489-1.47.489-3.283.489c-1.813-.001-3.283-.22-3.283-.489M132.66 303.078c0 .27-5.268.489-11.765.489-6.499 0-11.766-.219-11.766-.489s5.267-.489 11.766-.489c6.497.001 11.765.22 11.765.489M134.113 295.632c0 .27-5.268.489-11.765.489-6.499 0-11.766-.219-11.766-.489s5.267-.489 11.766-.489c6.497 0 11.765.219 11.765.489M90.786 303.154c0-.27 1.47-.489 3.283-.489s3.283.219 3.283.489-1.47.489-3.283.489c-1.813-.001-3.283-.22-3.283-.489M91.888 295.155c0-.27 1.47-.489 3.283-.489s3.283.219 3.283.489-1.47.489-3.283.489c-1.813-.001-3.283-.22-3.283-.489M135.633 288.349c0 .27-5.268.489-11.765.489-6.5 0-11.767-.219-11.767-.489s5.267-.489 11.767-.489c6.497 0 11.765.219 11.765.489M93.408 287.872c0-.27 1.47-.489 3.283-.489s3.283.219 3.283.489-1.47.489-3.283.489c-1.813-.001-3.283-.22-3.283-.489M137.153 281.066c0 .27-5.268.489-11.765.489-6.499 0-11.767-.219-11.767-.489s5.267-.489 11.767-.489c6.497 0 11.765.219 11.765.489M94.928 280.589c0-.27 1.47-.489 3.283-.489s3.283.219 3.283.489-1.47.489-3.283.489-3.283-.22-3.283-.489M142.656 274.51c0 .27-5.268.489-11.765.489-6.499 0-11.766-.219-11.766-.489s5.267-.489 11.766-.489c6.496.001 11.765.22 11.765.489M100.43 274.033c0-.27 1.47-.489 3.283-.489s3.283.219 3.283.489-1.469.489-3.283.489-3.283-.219-3.283-.489M133.763 359.914c0 .27-5.268.489-11.765.489-6.499 0-11.766-.219-11.766-.489s5.267-.489 11.766-.489c6.496.001 11.765.219 11.765.489M93.075 359.989c0-.27 1.47-.489 3.283-.489s3.283.219 3.283.489-1.47.489-3.283.489-3.283-.219-3.283-.489M134.95 369.11c0 .27-5.268.489-11.765.489-6.499 0-11.766-.219-11.766-.489s5.267-.489 11.766-.489c6.497.001 11.765.219 11.765.489M94.263 369.185c0-.27 1.47-.489 3.283-.489s3.283.219 3.283.489-1.47.489-3.283.489-3.283-.219-3.283-.489M135.324 377.052c0 .27-5.268.489-11.765.489-6.499 0-11.766-.219-11.766-.489s5.267-.489 11.766-.489c6.496 0 11.765.219 11.765.489M94.636 377.127c0-.27 1.47-.489 3.283-.489s3.283.219 3.283.489-1.47.489-3.283.489-3.283-.219-3.283-.489M135.697 384.994c0 .27-5.268.489-11.765.489-6.499 0-11.766-.219-11.766-.489s5.267-.489 11.766-.489c6.497 0 11.765.219 11.765.489M95.01 385.069c0-.27 1.47-.489 3.283-.489s3.283.219 3.283.489-1.469.489-3.283.489c-1.813-.001-3.283-.219-3.283-.489M136.071 392.936c0 .27-5.268.489-11.765.489-6.499 0-11.766-.219-11.766-.489s5.267-.489 11.766-.489c6.497 0 11.765.219 11.765.489M95.384 393.011c0-.27 1.47-.489 3.283-.489s3.283.219 3.283.489-1.47.489-3.283.489c-1.813-.001-3.283-.22-3.283-.489M136.207 400.658c0 .27-5.268.489-11.765.489-6.499 0-11.766-.219-11.766-.489s5.267-.489 11.766-.489c6.496 0 11.765.219 11.765.489M95.52 400.733c0-.27 1.47-.489 3.283-.489s3.283.219 3.283.489-1.47.489-3.283.489c-1.814 0-3.283-.219-3.283-.489M134.95 408.343c0 .27-5.268.489-11.765.489-6.499 0-11.766-.219-11.766-.489s5.267-.489 11.766-.489c6.497 0 11.765.219 11.765.489M94.263 408.418c0-.27 1.47-.489 3.283-.489s3.283.219 3.283.489-1.47.489-3.283.489c-1.813-.001-3.283-.219-3.283-.489M131.931 416.502c0 .27-5.268.489-11.765.489-6.499 0-11.767-.219-11.767-.489s5.267-.489 11.767-.489c6.497.001 11.765.22 11.765.489M91.244 416.577c0-.27 1.47-.489 3.283-.489s3.283.219 3.283.489-1.47.489-3.283.489-3.283-.219-3.283-.489M129.657 423.934c0 .27-5.268.489-11.765.489-6.499 0-11.766-.219-11.766-.489s5.267-.489 11.766-.489c6.497 0 11.765.219 11.765.489M242.784 448.135q-.003.014-.245.012l-.716-.018-2.751-.119a776 776 0 0 0-10.116-.431c-8.543-.324-20.352-.552-33.397-.49-13.049.061-24.861.294-33.412.412l-10.127.117-2.754.004-.716-.012q-.243-.009-.244-.022 0-.013.243-.031l.715-.04 2.752-.102 10.123-.283c8.549-.212 20.362-.504 33.418-.565 13.051-.061 24.87.225 33.414.643 4.272.206 7.728.413 10.113.597l2.746.217.713.069q.241.029.241.042M239.802 458.841c.001.144-19.25.322-42.991.398-23.75.076-42.996.021-42.997-.123s19.246-.322 42.995-.398c23.741-.075 42.992-.02 42.993.123M231.602 427.397c.006-.017.254.047.721.185l2.035.627 1.466.465c.502.188 1.219.279 1.619.974.18.354.055.841-.254 1.095-.293.266-.654.412-1.024.522l-2.307.537c-3.239.694-7.142 1.309-11.503 1.702-4.36.401-9.17.602-14.213.7l-25.83.345-7.828.042-2.129-.015c-.487-.009-.742-.023-.743-.041 0-.018.255-.04.741-.064l2.127-.083 7.826-.208 25.825-.497c5.039-.098 9.836-.284 14.182-.657 4.347-.365 8.236-.939 11.47-1.585l2.293-.496c.342-.093.67-.227.902-.432.238-.197.309-.497.199-.746-.259-.505-.922-.673-1.432-.858l-1.452-.508-2.004-.72c-.456-.169-.693-.267-.687-.284" style="fill:#263238"/></svg>